<?xml version="1.0" encoding="UTF-8" standalone="no"?>
<!-- Created with Inkscape (http://www.inkscape.org/) -->

<svg
   xmlns:dc="http://purl.org/dc/elements/1.1/"
   xmlns:cc="http://creativecommons.org/ns#"
   xmlns:rdf="http://www.w3.org/1999/02/22-rdf-syntax-ns#"
   xmlns:svg="http://www.w3.org/2000/svg"
   xmlns="http://www.w3.org/2000/svg"
   xmlns:sodipodi="http://sodipodi.sourceforge.net/DTD/sodipodi-0.dtd"
   xmlns:inkscape="http://www.inkscape.org/namespaces/inkscape"
   width="146.24686mm"
   height="117.54432mm"
   viewBox="0 0 146.24686 117.54432"
   version="1.1"
   id="svg852"
   inkscape:export-filename="/home/mparient/Documents/asteroid_logo/Edited/Cutting/asteroid_phones_dark.png"
   inkscape:export-xdpi="96"
   inkscape:export-ydpi="96"
   inkscape:version="0.92.3 (2405546, 2018-03-11)"
   sodipodi:docname="asteroid_phones_dark.svg">
  <defs
     id="defs846" />
  <sodipodi:namedview
     id="base"
     pagecolor="#ffffff"
     bordercolor="#666666"
     borderopacity="1.0"
     inkscape:pageopacity="0.0"
     inkscape:pageshadow="2"
     inkscape:zoom="0.35"
     inkscape:cx="-276.48513"
     inkscape:cy="119.27385"
     inkscape:document-units="mm"
     inkscape:current-layer="layer1"
     showgrid="false"
     fit-margin-top="7"
     fit-margin-right="7"
     fit-margin-left="7"
     fit-margin-bottom="7"
     inkscape:window-width="1611"
     inkscape:window-height="995"
     inkscape:window-x="69"
     inkscape:window-y="27"
     inkscape:window-maximized="1" />
  <metadata
     id="metadata849">
    <rdf:RDF>
      <cc:Work
         rdf:about="">
        <dc:format>image/svg+xml</dc:format>
        <dc:type
           rdf:resource="http://purl.org/dc/dcmitype/StillImage" />
        <dc:title></dc:title>
      </cc:Work>
    </rdf:RDF>
  </metadata>
  <g
     inkscape:label="Layer 1"
     inkscape:groupmode="layer"
     id="layer1"
     transform="translate(-27.418237,-62.846885)">
    <g
       id="g12"
       transform="matrix(0.35277777,0,0,-0.35277777,123.67206,167.57037)"
       style="fill:#232323;fill-opacity:1">
      <path
         sodipodi:nodetypes="ccccccccccccccccc"
         d="M 0,-16.5 -52.900572,199.17008 -123.38,12.659 l -27.704,91.14 -14.514,-43.05 h -25.624 v 18.5 h 15.942 l 23.945,72.03 28.343,-88.38 72.244428,191.81108 L 3.222,36.977 16.656,77.449 h 53.685 v -14 H 24.726 Z"
         style="fill:#232323;fill-opacity:1;fill-rule:nonzero;stroke:none"
         id="path14-3"
         inkscape:connector-curvature="0" />
    </g>
    <path
       d="M 117.96753,140.7594 H 87.792458 v -5.71464 h 30.175072 z"
       style="fill:#232323;fill-opacity:1;fill-rule:nonzero;stroke:none;stroke-width:0.30449978"
       id="path54-2"
       inkscape:connector-curvature="0"
       sodipodi:nodetypes="ccccc" />
    <g
       id="g50-5-9"
       transform="matrix(0.35277777,0,0,-0.35277777,155.32294,173.10388)"
       style="fill:#ef5028;fill-opacity:1">
      <path
         d="m 0,0 -6.613,3.351 c -28.813,14.599 -45.014,45.903 -40.313,77.894 4.614,31.446 28.118,56.068 58.53,62.525 -17.711,77.387 -86.621,132.729 -166.889,132.729 -80.268,0 -149.179,-55.342 -166.889,-132.728 30.414,-6.455 53.915,-31.078 58.53,-62.527 4.701,-31.99 -11.501,-63.294 -40.314,-77.893 L -310.571,0 l -3.921,6.291 c -18.468,29.63 -28.23,63.85 -28.23,98.961 0,10.847 0.942,21.776 2.802,32.501 v 1.495 l 0.414,0.716 c 7.897,42.172 30.342,80.67 63.312,108.528 33.735,28.506 76.675,44.205 120.909,44.205 44.234,0 87.173,-15.699 120.909,-44.205 32.955,-27.846 55.395,-66.321 63.301,-108.472 l 0.396,-0.664 0.019,-1.548 c 1.866,-10.743 2.811,-21.691 2.811,-32.556 0,-35.111 -9.761,-69.331 -28.23,-98.961 z"
         style="fill:#ef5028;fill-opacity:1;fill-rule:nonzero;stroke:none"
         id="path52-6-1"
         inkscape:connector-curvature="0" />
    </g>
  </g>
</svg>
